<mxfile host="Electron" modified="2024-03-04T18:45:29.958Z" agent="Mozilla/5.0 (Macintosh; Intel Mac OS X 10_15_7) AppleWebKit/537.36 (KHTML, like Gecko) draw.io/23.1.5 Chrome/120.0.6099.109 Electron/28.1.0 Safari/537.36" etag="JSS1sBh8xgPhZUwWS8zg" version="23.1.5" type="device">
  <diagram id="cAdHGZJsjUvaponxbGY9" name="DFD">
    <mxGraphModel dx="2882" dy="1928" grid="1" gridSize="10" guides="1" tooltips="1" connect="1" arrows="1" fold="1" page="0" pageScale="1" pageWidth="1100" pageHeight="850" math="0" shadow="0">
      <root>
        <mxCell id="0" />
        <mxCell id="1" value="elements" style="" parent="0" />
        <mxCell id="D4xpocQ1vYx3rmnUnZJU-3" value="&lt;font style=&quot;font-size: 24px;&quot;&gt;core service&lt;br&gt;configuration&lt;br&gt;data&lt;br&gt;&lt;/font&gt;" style="shape=cylinder3;whiteSpace=wrap;html=1;boundedLbl=1;backgroundOutline=1;size=15;strokeWidth=5;fillColor=none;" vertex="1" parent="1">
          <mxGeometry x="-440" y="-505" width="170" height="200" as="geometry" />
        </mxCell>
        <mxCell id="D4xpocQ1vYx3rmnUnZJU-4" value="&lt;font style=&quot;font-size: 24px;&quot;&gt;core service&lt;br&gt;data&lt;br&gt;&lt;/font&gt;" style="shape=cylinder3;whiteSpace=wrap;html=1;boundedLbl=1;backgroundOutline=1;size=15;strokeWidth=5;fillColor=none;" vertex="1" parent="1">
          <mxGeometry x="-440" y="-243" width="170" height="200" as="geometry" />
        </mxCell>
        <mxCell id="D4xpocQ1vYx3rmnUnZJU-7" value="" style="shape=note;whiteSpace=wrap;html=1;backgroundOutline=1;darkOpacity=0.05;size=13;fillColor=none;" vertex="1" parent="1">
          <mxGeometry x="-310" y="-359" width="30" height="38" as="geometry" />
        </mxCell>
        <mxCell id="D4xpocQ1vYx3rmnUnZJU-9" value="&lt;font style=&quot;font-size: 24px;&quot;&gt;core&lt;br&gt;service&lt;br&gt;&lt;/font&gt;" style="ellipse;whiteSpace=wrap;html=1;aspect=fixed;strokeWidth=5;fillColor=none;" vertex="1" parent="1">
          <mxGeometry x="10" y="-220" width="150" height="150" as="geometry" />
        </mxCell>
        <mxCell id="D4xpocQ1vYx3rmnUnZJU-11" value="&lt;font style=&quot;font-size: 24px;&quot;&gt;web&lt;br&gt;server&lt;br&gt;&lt;/font&gt;" style="ellipse;whiteSpace=wrap;html=1;aspect=fixed;strokeWidth=5;fillColor=none;" vertex="1" parent="1">
          <mxGeometry x="420" y="-220" width="150" height="150" as="geometry" />
        </mxCell>
        <mxCell id="D4xpocQ1vYx3rmnUnZJU-12" value="" style="group" vertex="1" connectable="0" parent="1">
          <mxGeometry x="102" y="-210" width="390" height="190" as="geometry" />
        </mxCell>
        <mxCell id="D4xpocQ1vYx3rmnUnZJU-13" value="" style="verticalLabelPosition=bottom;verticalAlign=top;html=1;shape=mxgraph.basic.arc;startAngle=0.8860347109465296;endAngle=0.11411597537759062;strokeWidth=5;" vertex="1" parent="D4xpocQ1vYx3rmnUnZJU-12">
          <mxGeometry x="7" width="390" height="190" as="geometry" />
        </mxCell>
        <mxCell id="D4xpocQ1vYx3rmnUnZJU-14" value="" style="endArrow=classicThin;html=1;rounded=0;strokeWidth=5;endFill=1;entryX=0.138;entryY=0.163;entryDx=0;entryDy=0;entryPerimeter=0;exitX=0.228;exitY=0.079;exitDx=0;exitDy=0;exitPerimeter=0;" edge="1" parent="D4xpocQ1vYx3rmnUnZJU-12">
          <mxGeometry width="50" height="50" relative="1" as="geometry">
            <mxPoint x="86.92000000000007" y="18.00999999999999" as="sourcePoint" />
            <mxPoint x="51.820000000000164" y="33.97000000000003" as="targetPoint" />
          </mxGeometry>
        </mxCell>
        <mxCell id="D4xpocQ1vYx3rmnUnZJU-15" value="" style="group;rotation=-180;" vertex="1" connectable="0" parent="D4xpocQ1vYx3rmnUnZJU-12">
          <mxGeometry x="-9" y="-50" width="390" height="190" as="geometry" />
        </mxCell>
        <mxCell id="D4xpocQ1vYx3rmnUnZJU-16" value="" style="verticalLabelPosition=bottom;verticalAlign=top;html=1;shape=mxgraph.basic.arc;startAngle=0.8860347109465296;endAngle=0.1295460473378242;strokeWidth=5;rotation=-180;" vertex="1" parent="D4xpocQ1vYx3rmnUnZJU-15">
          <mxGeometry width="390" height="190" as="geometry" />
        </mxCell>
        <mxCell id="D4xpocQ1vYx3rmnUnZJU-17" value="" style="endArrow=classicThin;html=1;rounded=0;strokeWidth=5;endFill=1;entryX=0.138;entryY=0.163;entryDx=0;entryDy=0;entryPerimeter=0;exitX=0.228;exitY=0.079;exitDx=0;exitDy=0;exitPerimeter=0;" edge="1" parent="D4xpocQ1vYx3rmnUnZJU-15">
          <mxGeometry width="50" height="50" relative="1" as="geometry">
            <mxPoint x="303" y="174" as="sourcePoint" />
            <mxPoint x="338" y="158" as="targetPoint" />
          </mxGeometry>
        </mxCell>
        <mxCell id="D4xpocQ1vYx3rmnUnZJU-18" value="" style="group;rotation=-90;" vertex="1" connectable="0" parent="1">
          <mxGeometry x="-80" y="-40" width="680" height="338.75" as="geometry" />
        </mxCell>
        <mxCell id="D4xpocQ1vYx3rmnUnZJU-21" value="" style="group;rotation=-270;" vertex="1" connectable="0" parent="D4xpocQ1vYx3rmnUnZJU-18">
          <mxGeometry x="-50" y="9" width="730" height="329.75" as="geometry" />
        </mxCell>
        <mxCell id="D4xpocQ1vYx3rmnUnZJU-24" value="" style="verticalLabelPosition=bottom;verticalAlign=top;html=1;shape=mxgraph.basic.arc;startAngle=0.8421625323872021;endAngle=0.17538356154332588;strokeWidth=5;rotation=90;strokeColor=#FF0000;dashed=1;" vertex="1" parent="D4xpocQ1vYx3rmnUnZJU-21">
          <mxGeometry x="-82.62" y="-301.62" width="580" height="374" as="geometry" />
        </mxCell>
        <mxCell id="D4xpocQ1vYx3rmnUnZJU-25" value="&lt;font style=&quot;&quot;&gt;&lt;font style=&quot;font-size: 18px;&quot; color=&quot;#0000ff&quot;&gt;core service to web server&lt;/font&gt;&lt;br&gt;&lt;/font&gt;" style="text;html=1;strokeColor=none;fillColor=none;align=center;verticalAlign=middle;whiteSpace=wrap;rounded=0;rotation=0;" vertex="1" parent="D4xpocQ1vYx3rmnUnZJU-21">
          <mxGeometry x="280" y="-89" width="290" height="33" as="geometry" />
        </mxCell>
        <mxCell id="D4xpocQ1vYx3rmnUnZJU-26" value="&lt;font style=&quot;&quot;&gt;&lt;font style=&quot;font-size: 18px;&quot; color=&quot;#0000ff&quot;&gt;web server to core service&lt;/font&gt;&lt;br&gt;&lt;/font&gt;" style="text;html=1;strokeColor=none;fillColor=none;align=center;verticalAlign=middle;whiteSpace=wrap;rounded=0;rotation=0;" vertex="1" parent="D4xpocQ1vYx3rmnUnZJU-21">
          <mxGeometry x="290" y="-169" width="290" height="36" as="geometry" />
        </mxCell>
        <mxCell id="D4xpocQ1vYx3rmnUnZJU-49" value="&lt;font style=&quot;font-size: 24px;&quot;&gt;&lt;font color=&quot;#ff0000&quot;&gt;Core Service Boundary&lt;/font&gt;&lt;br&gt;&lt;/font&gt;" style="text;html=1;strokeColor=none;fillColor=none;align=center;verticalAlign=middle;whiteSpace=wrap;rounded=0;" vertex="1" parent="D4xpocQ1vYx3rmnUnZJU-21">
          <mxGeometry x="430" y="-19" width="120" height="93.63" as="geometry" />
        </mxCell>
        <mxCell id="D4xpocQ1vYx3rmnUnZJU-28" value="" style="group" vertex="1" connectable="0" parent="1">
          <mxGeometry x="-320" y="-218" width="390" height="190" as="geometry" />
        </mxCell>
        <mxCell id="D4xpocQ1vYx3rmnUnZJU-29" value="" style="verticalLabelPosition=bottom;verticalAlign=top;html=1;shape=mxgraph.basic.arc;startAngle=0.8860347109465296;endAngle=0.13201699142116544;strokeWidth=5;" vertex="1" parent="D4xpocQ1vYx3rmnUnZJU-28">
          <mxGeometry width="390" height="190" as="geometry" />
        </mxCell>
        <mxCell id="D4xpocQ1vYx3rmnUnZJU-30" value="" style="endArrow=classicThin;html=1;rounded=0;strokeWidth=5;endFill=1;entryX=0.138;entryY=0.163;entryDx=0;entryDy=0;entryPerimeter=0;exitX=0.228;exitY=0.079;exitDx=0;exitDy=0;exitPerimeter=0;" edge="1" parent="D4xpocQ1vYx3rmnUnZJU-28">
          <mxGeometry width="50" height="50" relative="1" as="geometry">
            <mxPoint x="86.92000000000007" y="16.00999999999999" as="sourcePoint" />
            <mxPoint x="51.820000000000164" y="31.970000000000027" as="targetPoint" />
          </mxGeometry>
        </mxCell>
        <mxCell id="D4xpocQ1vYx3rmnUnZJU-31" value="" style="group;rotation=-180;" vertex="1" connectable="0" parent="D4xpocQ1vYx3rmnUnZJU-28">
          <mxGeometry x="-2" y="-50" width="390" height="228" as="geometry" />
        </mxCell>
        <mxCell id="D4xpocQ1vYx3rmnUnZJU-32" value="" style="verticalLabelPosition=bottom;verticalAlign=top;html=1;shape=mxgraph.basic.arc;startAngle=0.8860347109465296;endAngle=0.13395700724033308;strokeWidth=5;rotation=-180;" vertex="1" parent="D4xpocQ1vYx3rmnUnZJU-31">
          <mxGeometry width="390" height="190" as="geometry" />
        </mxCell>
        <mxCell id="D4xpocQ1vYx3rmnUnZJU-33" value="" style="endArrow=classicThin;html=1;rounded=0;strokeWidth=5;endFill=1;entryX=0.138;entryY=0.163;entryDx=0;entryDy=0;entryPerimeter=0;exitX=0.228;exitY=0.079;exitDx=0;exitDy=0;exitPerimeter=0;" edge="1" parent="D4xpocQ1vYx3rmnUnZJU-31">
          <mxGeometry width="50" height="50" relative="1" as="geometry">
            <mxPoint x="303" y="174" as="sourcePoint" />
            <mxPoint x="338" y="158" as="targetPoint" />
          </mxGeometry>
        </mxCell>
        <mxCell id="D4xpocQ1vYx3rmnUnZJU-34" value="&lt;font style=&quot;&quot;&gt;&lt;font style=&quot;font-size: 18px;&quot; color=&quot;#0000ff&quot;&gt;core data to core service&lt;/font&gt;&lt;br&gt;&lt;/font&gt;" style="text;html=1;strokeColor=none;fillColor=none;align=center;verticalAlign=middle;whiteSpace=wrap;rounded=0;rotation=0;" vertex="1" parent="D4xpocQ1vYx3rmnUnZJU-31">
          <mxGeometry x="85" y="148" width="220" height="35" as="geometry" />
        </mxCell>
        <mxCell id="D4xpocQ1vYx3rmnUnZJU-35" value="&lt;font style=&quot;&quot;&gt;&lt;font style=&quot;font-size: 18px;&quot; color=&quot;#0000ff&quot;&gt;core service to core data&lt;/font&gt;&lt;br&gt;&lt;/font&gt;" style="text;html=1;strokeColor=none;fillColor=none;align=center;verticalAlign=middle;whiteSpace=wrap;rounded=0;rotation=0;" vertex="1" parent="D4xpocQ1vYx3rmnUnZJU-28">
          <mxGeometry x="83" y="8" width="220" height="34" as="geometry" />
        </mxCell>
        <mxCell id="D4xpocQ1vYx3rmnUnZJU-46" value="" style="verticalLabelPosition=bottom;verticalAlign=top;html=1;shape=mxgraph.basic.arc;startAngle=0.8797494834559487;endAngle=0.09983919964272872;strokeWidth=5;rotation=33;" vertex="1" parent="1">
          <mxGeometry x="-452.21" y="-358.8" width="554.21" height="330.8" as="geometry" />
        </mxCell>
        <mxCell id="D4xpocQ1vYx3rmnUnZJU-47" value="" style="endArrow=classicThin;html=1;rounded=0;strokeWidth=5;endFill=1;entryX=0.138;entryY=0.163;entryDx=0;entryDy=0;entryPerimeter=0;exitX=0.737;exitY=0.057;exitDx=0;exitDy=0;exitPerimeter=0;" edge="1" parent="1">
          <mxGeometry width="50" height="50" relative="1" as="geometry">
            <mxPoint x="14.866309467121027" y="-243.7653524730456" as="sourcePoint" />
            <mxPoint x="41" y="-208" as="targetPoint" />
          </mxGeometry>
        </mxCell>
        <mxCell id="D4xpocQ1vYx3rmnUnZJU-51" value="&lt;font style=&quot;&quot;&gt;&lt;font style=&quot;font-size: 18px;&quot; color=&quot;#0000ff&quot;&gt;core configuration to core service&lt;/font&gt;&lt;br&gt;&lt;/font&gt;" style="text;html=1;strokeColor=none;fillColor=none;align=center;verticalAlign=middle;whiteSpace=wrap;rounded=0;rotation=34;" vertex="1" parent="1">
          <mxGeometry x="-250" y="-320" width="307.72" height="30" as="geometry" />
        </mxCell>
        <mxCell id="D4xpocQ1vYx3rmnUnZJU-54" value="&lt;font style=&quot;font-size: 24px;&quot;&gt;web&lt;br&gt;browser&lt;br&gt;&lt;/font&gt;" style="ellipse;whiteSpace=wrap;html=1;aspect=fixed;strokeWidth=5;fillColor=none;" vertex="1" parent="1">
          <mxGeometry x="880" y="-220" width="150" height="150" as="geometry" />
        </mxCell>
        <mxCell id="D4xpocQ1vYx3rmnUnZJU-55" value="" style="verticalLabelPosition=bottom;verticalAlign=top;html=1;shape=mxgraph.basic.arc;startAngle=0.8860347109465296;endAngle=0.13201699142116544;strokeWidth=5;" vertex="1" parent="1">
          <mxGeometry x="508" y="-210" width="440.00000000000006" height="190" as="geometry" />
        </mxCell>
        <mxCell id="D4xpocQ1vYx3rmnUnZJU-56" value="" style="endArrow=classicThin;html=1;rounded=0;strokeWidth=5;endFill=1;entryX=0.138;entryY=0.163;entryDx=0;entryDy=0;entryPerimeter=0;exitX=0.228;exitY=0.079;exitDx=0;exitDy=0;exitPerimeter=0;" edge="1" parent="1">
          <mxGeometry width="50" height="50" relative="1" as="geometry">
            <mxPoint x="606.0635897435899" y="-193.99" as="sourcePoint" />
            <mxPoint x="566.46358974359" y="-178.02999999999997" as="targetPoint" />
          </mxGeometry>
        </mxCell>
        <mxCell id="D4xpocQ1vYx3rmnUnZJU-57" value="" style="group;rotation=-180;" vertex="1" connectable="0" parent="1">
          <mxGeometry x="488.49" y="-260" width="452.26" height="190" as="geometry" />
        </mxCell>
        <mxCell id="D4xpocQ1vYx3rmnUnZJU-58" value="" style="verticalLabelPosition=bottom;verticalAlign=top;html=1;shape=mxgraph.basic.arc;startAngle=0.8860347109465296;endAngle=0.13395700724033308;strokeWidth=5;rotation=-180;" vertex="1" parent="D4xpocQ1vYx3rmnUnZJU-57">
          <mxGeometry x="12.334363636363634" width="452.26" height="190" as="geometry" />
        </mxCell>
        <mxCell id="D4xpocQ1vYx3rmnUnZJU-59" value="" style="endArrow=classicThin;html=1;rounded=0;strokeWidth=5;endFill=1;entryX=0.138;entryY=0.163;entryDx=0;entryDy=0;entryPerimeter=0;exitX=0.228;exitY=0.079;exitDx=0;exitDy=0;exitPerimeter=0;" edge="1" parent="D4xpocQ1vYx3rmnUnZJU-57">
          <mxGeometry width="50" height="50" relative="1" as="geometry">
            <mxPoint x="363.70559440559435" y="174" as="sourcePoint" />
            <mxPoint x="404.29303030303026" y="158" as="targetPoint" />
          </mxGeometry>
        </mxCell>
        <mxCell id="D4xpocQ1vYx3rmnUnZJU-60" value="&lt;font style=&quot;&quot;&gt;&lt;font color=&quot;#0000ff&quot;&gt;&lt;span style=&quot;font-size: 18px;&quot;&gt;web server to web browser&lt;/span&gt;&lt;/font&gt;&lt;br&gt;&lt;/font&gt;" style="text;html=1;strokeColor=none;fillColor=none;align=center;verticalAlign=middle;whiteSpace=wrap;rounded=0;rotation=0;" vertex="1" parent="D4xpocQ1vYx3rmnUnZJU-57">
          <mxGeometry x="116.70205594405591" y="140" width="255.12102564102562" height="33" as="geometry" />
        </mxCell>
        <mxCell id="D4xpocQ1vYx3rmnUnZJU-61" value="&lt;font style=&quot;&quot;&gt;&lt;font style=&quot;font-size: 18px;&quot; color=&quot;#0000ff&quot;&gt;web browser to web server&lt;/font&gt;&lt;br&gt;&lt;/font&gt;" style="text;html=1;strokeColor=none;fillColor=none;align=center;verticalAlign=middle;whiteSpace=wrap;rounded=0;rotation=0;" vertex="1" parent="1">
          <mxGeometry x="607.2820512820513" y="-200" width="248.20512820512823" height="36" as="geometry" />
        </mxCell>
        <mxCell id="D4xpocQ1vYx3rmnUnZJU-68" value="" style="shape=datastore;whiteSpace=wrap;html=1;fillColor=none;" vertex="1" parent="1">
          <mxGeometry x="-311" y="-101" width="31" height="40" as="geometry" />
        </mxCell>
        <mxCell id="D4xpocQ1vYx3rmnUnZJU-85" value="&lt;font style=&quot;font-size: 24px;&quot;&gt;&lt;font color=&quot;#ff0000&quot;&gt;Machine Boundary&lt;/font&gt;&lt;br&gt;&lt;/font&gt;" style="text;html=1;strokeColor=none;fillColor=none;align=center;verticalAlign=middle;whiteSpace=wrap;rounded=0;" vertex="1" parent="1">
          <mxGeometry x="735.49" y="-50" width="120" height="93.63" as="geometry" />
        </mxCell>
        <mxCell id="D4xpocQ1vYx3rmnUnZJU-86" value="" style="verticalLabelPosition=bottom;verticalAlign=top;html=1;shape=mxgraph.basic.arc;startAngle=0.8421625323872021;endAngle=0.17538356154332588;strokeWidth=5;rotation=90;strokeColor=#FF0000;dashed=1;" vertex="1" parent="1">
          <mxGeometry x="340.6" y="-258.2" width="535.74" height="248.8" as="geometry" />
        </mxCell>
      </root>
    </mxGraphModel>
  </diagram>
</mxfile>
